<svg xmlns="http://www.w3.org/2000/svg" viewBox="0 0 4440 120" width="4440" height="120"><path d="M60 10c-13.256 0-25.982 5.271-35.355 14.645C15.271 34.018 10 46.744 10 60c0 13.256 5.271 25.982 14.645 35.355C34.018 104.729 46.744 110 60 110c13.256 0 25.982-5.271 35.355-14.645C104.729 85.982 110 73.256 110 60c0-13.256-5.271-25.982-14.645-35.355C85.982 15.271 73.256 10 60 10z" fill="none" stroke="#ee1b25" stroke-width="2" stroke-miterlimit="10"/><path d="M69.7 50.3V30.8H50.3v19.5H30.8v19.4h19.5v19.5h19.4V69.7h19.5V50.3z" fill="#ee1b25"/><path d="M180 10c-13.256 0-25.982 5.271-35.355 14.645C135.271 34.018 130 46.744 130 60c0 13.256 5.271 25.982 14.645 35.355C154.018 104.729 166.744 110 180 110c13.256 0 25.982-5.271 35.355-14.645C224.729 85.982 230 73.256 230 60c0-13.256-5.271-25.982-14.645-35.355C205.982 15.271 193.256 10 180 10z" fill="none" stroke="#ee1b25" stroke-width="2" stroke-dasharray="313.37731748860534,0.7776807627772874" stroke-dashoffset="314.154998" stroke-miterlimit="10"/><path d="M189.7 50.3V30.8h-19.4v19.5h-19.5v19.4h19.5v19.5h19.4V69.7h19.5V50.3z" fill="#ee1b25"/><path d="M300 10c-13.256 0-25.982 5.271-35.355 14.645C255.271 34.018 250 46.744 250 60c0 13.256 5.271 25.982 14.645 35.355C274.018 104.729 286.744 110 300 110c13.256 0 25.982-5.271 35.355-14.645C344.729 85.982 350 73.256 350 60c0-13.256-5.271-25.982-14.645-35.355C325.982 15.271 313.256 10 300 10z" fill="none" stroke="#ee1b25" stroke-width="2" stroke-dasharray="310.8121519278575,3.3428463235251282" stroke-dashoffset="314.154998" stroke-miterlimit="10"/><path d="M309.7 50.3V30.8h-19.4v19.5h-19.5v19.4h19.5v19.5h19.4V69.7h19.5V50.3z" fill="#ee1b25"/><path d="M420 10c-13.256 0-25.982 5.271-35.355 14.645C375.271 34.018 370 46.744 370 60c0 13.256 5.271 25.982 14.645 35.355C394.018 104.729 406.744 110 420 110c13.256 0 25.982-5.271 35.355-14.645C464.729 85.982 470 73.256 470 60c0-13.256-5.271-25.982-14.645-35.355C445.982 15.271 433.256 10 420 10z" fill="none" stroke="#ee1b25" stroke-width="2" stroke-dasharray="306.0300028533953,8.124995397987322" stroke-dashoffset="314.154998" stroke-miterlimit="10"/><path d="M429.7 50.3V30.8h-19.4v19.5h-19.5v19.4h19.5v19.5h19.4V69.7h19.5V50.3z" fill="#ee1b25"/><path d="M540 10c-13.256 0-25.982 5.271-35.355 14.645C495.271 34.018 490 46.744 490 60c0 13.256 5.271 25.982 14.645 35.355C514.018 104.729 526.744 110 540 110c13.256 0 25.982-5.271 35.355-14.645C584.729 85.982 590 73.256 590 60c0-13.256-5.271-25.982-14.645-35.355C565.982 15.271 553.256 10 540 10z" fill="none" stroke="#ee1b25" stroke-width="2" stroke-dasharray="298.4689856790097,15.686012572372915" stroke-dashoffset="314.154998" stroke-miterlimit="10"/><path d="M549.7 50.3V30.8h-19.4v19.5h-19.5v19.4h19.5v19.5h19.4V69.7h19.5V50.3z" fill="#ee1b25"/><path d="M660 10c-13.256 0-25.982 5.271-35.355 14.645C615.271 34.018 610 46.744 610 60c0 13.256 5.271 25.982 14.645 35.355C634.018 104.729 646.744 110 660 110c13.256 0 25.982-5.271 35.355-14.645C704.729 85.982 710 73.256 710 60c0-13.256-5.271-25.982-14.645-35.355C685.982 15.271 673.256 10 660 10z" fill="none" stroke="#ee1b25" stroke-width="2" stroke-dasharray="287.4186858264075,26.736312424975118" stroke-dashoffset="314.154998" stroke-miterlimit="10"/><path d="M669.7 50.3V30.8h-19.4v19.5h-19.5v19.4h19.5v19.5h19.4V69.7h19.5V50.3z" fill="#ee1b25"/><path d="M780 10c-13.256 0-25.982 5.271-35.355 14.645C735.271 34.018 730 46.744 730 60c0 13.256 5.271 25.982 14.645 35.355C754.018 104.729 766.744 110 780 110c13.256 0 25.982-5.271 35.355-14.645C824.729 85.982 830 73.256 830 60c0-13.256-5.271-25.982-14.645-35.355C805.982 15.271 793.256 10 780 10z" fill="none" stroke="#ee1b25" stroke-width="2" stroke-dasharray="272.074949361569,42.08004888981363" stroke-dashoffset="314.154998" stroke-miterlimit="10"/><path d="M789.7 50.3V30.8h-19.4v19.5h-19.5v19.4h19.5v19.5h19.4V69.7h19.5V50.3z" fill="#ee1b25"/><path d="M900 10c-13.256 0-25.982 5.271-35.355 14.645C855.271 34.018 850 46.744 850 60c0 13.256 5.271 25.982 14.645 35.355C874.018 104.729 886.744 110 900 110c13.256 0 25.982-5.271 35.355-14.645C944.729 85.982 950 73.256 950 60c0-13.256-5.271-25.982-14.645-35.355C925.982 15.271 913.256 10 900 10z" fill="none" stroke="#ee1b25" stroke-width="2" stroke-dasharray="251.80715029978916,62.34784795159345" stroke-dashoffset="314.154998" stroke-miterlimit="10"/><path d="M909.7 50.3V30.8h-19.4v19.5h-19.5v19.4h19.5v19.5h19.4V69.7h19.5V50.3z" fill="#ee1b25"/><path d="M1020 10c-13.256 0-25.982 5.271-35.355 14.645C975.271 34.018 970 46.744 970 60c0 13.256 5.271 25.982 14.645 35.355C994.018 104.729 1006.744 110 1020 110c13.256 0 25.982-5.271 35.355-14.645C1064.729 85.982 1070 73.256 1070 60c0-13.256-5.271-25.982-14.645-35.355C1045.982 15.271 1033.256 10 1020 10z" fill="none" stroke="#ee1b25" stroke-width="2" stroke-dasharray="226.8030897432027,87.3519085081799" stroke-dashoffset="314.154998" stroke-miterlimit="10"/><path d="M1029.7 50.3V30.8h-19.4v19.5h-19.5v19.4h19.5v19.5h19.4V69.7h19.5V50.3z" fill="#ee1b25"/><path d="M1140 10c-13.256 0-25.982 5.271-35.355 14.645C1095.271 34.018 1090 46.744 1090 60c0 13.256 5.271 25.982 14.645 35.355C1114.018 104.729 1126.744 110 1140 110c13.256 0 25.982-5.271 35.355-14.645C1184.729 85.982 1190 73.256 1190 60c0-13.256-5.271-25.982-14.645-35.355C1165.982 15.271 1153.256 10 1140 10z" fill="none" stroke="#ee1b25" stroke-width="2" stroke-dasharray="198.76721565705677,115.38778259432584" stroke-dashoffset="314.154998" stroke-miterlimit="10"/><path d="M1149.7 50.3V30.8h-19.4v19.5h-19.5v19.4h19.5v19.5h19.4V69.7h19.5V50.3z" fill="#ee1b25"/><path d="M1260 10c-13.256 0-25.982 5.271-35.355 14.645C1215.271 34.018 1210 46.744 1210 60c0 13.256 5.271 25.982 14.645 35.355C1234.018 104.729 1246.744 110 1260 110c13.256 0 25.982-5.271 35.355-14.645C1304.729 85.982 1310 73.256 1310 60c0-13.256-5.271-25.982-14.645-35.355C1285.982 15.271 1273.256 10 1260 10z" fill="none" stroke="#ee1b25" stroke-width="2" stroke-dasharray="170.50707872877166,143.64791952261095" stroke-dashoffset="314.154998" stroke-miterlimit="10"/><path d="M1269.7 50.3V30.8h-19.4v19.5h-19.5v19.4h19.5v19.5h19.4V69.7h19.5V50.3z" fill="#ee1b25"/><path d="M1380 10c-13.256 0-25.982 5.271-35.355 14.645C1335.271 34.018 1330 46.744 1330 60c0 13.256 5.271 25.982 14.645 35.355C1354.018 104.729 1366.744 110 1380 110c13.256 0 25.982-5.271 35.355-14.645C1424.729 85.982 1430 73.256 1430 60c0-13.256-5.271-25.982-14.645-35.355C1405.982 15.271 1393.256 10 1380 10z" fill="none" stroke="#ee1b25" stroke-width="2" stroke-dasharray="144.36823359294203,169.78676465844057" stroke-dashoffset="314.154998" stroke-miterlimit="10"/><path d="M1389.7 50.3V30.8h-19.4v19.5h-19.5v19.4h19.5v19.5h19.4V69.7h19.5V50.3z" fill="#ee1b25"/><path d="M1500 10c-13.256 0-25.982 5.271-35.355 14.645C1455.271 34.018 1450 46.744 1450 60c0 13.256 5.271 25.982 14.645 35.355C1474.018 104.729 1486.744 110 1500 110c13.256 0 25.982-5.271 35.355-14.645C1544.729 85.982 1550 73.256 1550 60c0-13.256-5.271-25.982-14.645-35.355C1525.982 15.271 1513.256 10 1500 10z" fill="none" stroke="#ee1b25" stroke-width="2" stroke-dasharray="121.39114173470212,192.7638565166805" stroke-dashoffset="314.154998" stroke-miterlimit="10"/><path d="M1509.7 50.3V30.8h-19.4v19.5h-19.5v19.4h19.5v19.5h19.4V69.7h19.5V50.3z" fill="#ee1b25"/><path d="M1620 10c-13.256 0-25.982 5.271-35.355 14.645C1575.271 34.018 1570 46.744 1570 60c0 13.256 5.271 25.982 14.645 35.355C1594.018 104.729 1606.744 110 1620 110c13.256 0 25.982-5.271 35.355-14.645C1664.729 85.982 1670 73.256 1670 60c0-13.256-5.271-25.982-14.645-35.355C1645.982 15.271 1633.256 10 1620 10z" fill="none" stroke="#ee1b25" stroke-width="2" stroke-dasharray="101.65435769711128,212.5006405542713" stroke-dashoffset="314.154998" stroke-miterlimit="10"/><path d="M1629.7 50.3V30.8h-19.4v19.5h-19.5v19.4h19.5v19.5h19.4V69.7h19.5V50.3z" fill="#ee1b25"/><path d="M1740 10c-13.256 0-25.982 5.271-35.355 14.645C1695.271 34.018 1690 46.744 1690 60c0 13.256 5.271 25.982 14.645 35.355C1714.018 104.729 1726.744 110 1740 110c13.256 0 25.982-5.271 35.355-14.645C1784.729 85.982 1790 73.256 1790 60c0-13.256-5.271-25.982-14.645-35.355C1765.982 15.271 1753.256 10 1740 10z" fill="none" stroke="#ee1b25" stroke-width="2" stroke-dasharray="84.83209320269475,229.32290504868786" stroke-dashoffset="314.154998" stroke-miterlimit="10"/><path d="M1749.7 50.3V30.8h-19.4v19.5h-19.5v19.4h19.5v19.5h19.4V69.7h19.5V50.3z" fill="#ee1b25"/><path d="M1860 10c-13.256 0-25.982 5.271-35.355 14.645C1815.271 34.018 1810 46.744 1810 60c0 13.256 5.271 25.982 14.645 35.355C1834.018 104.729 1846.744 110 1860 110c13.256 0 25.982-5.271 35.355-14.645C1904.729 85.982 1910 73.256 1910 60c0-13.256-5.271-25.982-14.645-35.355C1885.982 15.271 1873.256 10 1860 10z" fill="none" stroke="#ee1b25" stroke-width="2" stroke-dasharray="70.5085359138335,243.6464623375491" stroke-dashoffset="314.154998" stroke-miterlimit="10"/><path d="M1869.7 50.3V30.8h-19.4v19.5h-19.5v19.4h19.5v19.5h19.4V69.7h19.5V50.3z" fill="#ee1b25"/><path d="M1980 10c-13.256 0-25.982 5.271-35.355 14.645C1935.271 34.018 1930 46.744 1930 60c0 13.256 5.271 25.982 14.645 35.355C1954.018 104.729 1966.744 110 1980 110c13.256 0 25.982-5.271 35.355-14.645C2024.729 85.982 2030 73.256 2030 60c0-13.256-5.271-25.982-14.645-35.355C2005.982 15.271 1993.256 10 1980 10z" fill="none" stroke="#ee1b25" stroke-width="2" stroke-dasharray="58.29712853450466,255.85786971687796" stroke-dashoffset="314.154998" stroke-miterlimit="10"/><path d="M1989.7 50.3V30.8h-19.4v19.5h-19.5v19.4h19.5v19.5h19.4V69.7h19.5V50.3z" fill="#ee1b25"/><path d="M2100 10c-13.256 0-25.982 5.271-35.355 14.645C2055.271 34.018 2050 46.744 2050 60c0 13.256 5.271 25.982 14.645 35.355C2074.018 104.729 2086.744 110 2100 110c13.256 0 25.982-5.271 35.355-14.645C2144.729 85.982 2150 73.256 2150 60c0-13.256-5.271-25.982-14.645-35.355C2125.982 15.271 2113.256 10 2100 10z" fill="none" stroke="#ee1b25" stroke-width="2" stroke-dasharray="47.871544145857996,266.28345410552464" stroke-dashoffset="314.154998" stroke-miterlimit="10"/><path d="M2109.7 50.3V30.8h-19.4v19.5h-19.5v19.4h19.5v19.5h19.4V69.7h19.5V50.3z" fill="#ee1b25"/><path d="M2220 10c-13.256 0-25.982 5.271-35.355 14.645C2175.271 34.018 2170 46.744 2170 60c0 13.256 5.271 25.982 14.645 35.355C2194.018 104.729 2206.744 110 2220 110c13.256 0 25.982-5.271 35.355-14.645C2264.729 85.982 2270 73.256 2270 60c0-13.256-5.271-25.982-14.645-35.355C2245.982 15.271 2233.256 10 2220 10z" fill="none" stroke="#ee1b25" stroke-width="2" stroke-dasharray="38.965301188967736,275.1896970624149" stroke-dashoffset="314.154998" stroke-miterlimit="10"/><path d="M2229.7 50.3V30.8h-19.4v19.5h-19.5v19.4h19.5v19.5h19.4V69.7h19.5V50.3z" fill="#ee1b25"/><g><path d="M2340 10c-13.256 0-25.982 5.271-35.355 14.645C2295.271 34.018 2290 46.744 2290 60c0 13.256 5.271 25.982 14.645 35.355C2314.018 104.729 2326.744 110 2340 110c13.256 0 25.982-5.271 35.355-14.645C2384.729 85.982 2390 73.256 2390 60c0-13.256-5.271-25.982-14.645-35.355C2365.982 15.271 2353.256 10 2340 10z" fill="none" stroke="#ee1b25" stroke-width="2" stroke-dasharray="31.362671528353054,282.79232672302953" stroke-dashoffset="314.154998" stroke-miterlimit="10"/><path d="M2349.7 50.3V30.8h-19.4v19.5h-19.5v19.4h19.5v19.5h19.4V69.7h19.5V50.3z" fill="#ee1b25" fill-opacity=".736129"/></g><g><path d="M2460 10c-13.256 0-25.982 5.271-35.355 14.645C2415.271 34.018 2410 46.744 2410 60c0 13.256 5.271 25.982 14.645 35.355C2434.018 104.729 2446.744 110 2460 110c13.256 0 25.982-5.271 35.355-14.645C2504.729 85.982 2510 73.256 2510 60c0-13.256-5.271-25.982-14.645-35.355C2485.982 15.271 2473.256 10 2460 10z" fill="none" stroke="#ee1b25" stroke-width="2" stroke-dasharray="24.888683618219197,289.2663146331634" stroke-dashoffset="314.154998" stroke-miterlimit="10"/><path d="M2469.7 50.3V30.8h-19.4v19.5h-19.5v19.4h19.5v19.5h19.4V69.7h19.5V50.3z" fill="#ee1b25" fill-opacity=".558446"/></g><g><path d="M2580 10c-13.256 0-25.982 5.271-35.355 14.645C2535.271 34.018 2530 46.744 2530 60c0 13.256 5.271 25.982 14.645 35.355C2554.018 104.729 2566.744 110 2580 110c13.256 0 25.982-5.271 35.355-14.645C2624.729 85.982 2630 73.256 2630 60c0-13.256-5.271-25.982-14.645-35.355C2605.982 15.271 2593.256 10 2580 10z" fill="none" stroke="#ee1b25" stroke-width="2" stroke-dasharray="19.400488880800168,294.7545093705824" stroke-dashoffset="314.154998" stroke-miterlimit="10"/><path d="M2589.7 50.3V30.8h-19.4v19.5h-19.5v19.4h19.5v19.5h19.4V69.7h19.5V50.3z" fill="#ee1b25" fill-opacity=".422427"/></g><g><path d="M2700 10c-13.256 0-25.982 5.271-35.355 14.645C2655.271 34.018 2650 46.744 2650 60c0 13.256 5.271 25.982 14.645 35.355C2674.018 104.729 2686.744 110 2700 110c13.256 0 25.982-5.271 35.355-14.645C2744.729 85.982 2750 73.256 2750 60c0-13.256-5.271-25.982-14.645-35.355C2725.982 15.271 2713.256 10 2700 10z" fill="none" stroke="#ee1b25" stroke-width="2" stroke-dasharray="14.780469875755898,299.3745283756267" stroke-dashoffset="314.154998" stroke-miterlimit="10"/><path d="M2709.7 50.3V30.8h-19.4v19.5h-19.5v19.4h19.5v19.5h19.4V69.7h19.5V50.3z" fill="#ee1b25" fill-opacity=".314906"/></g><g><path d="M2820 10c-13.256 0-25.982 5.271-35.355 14.645C2775.271 34.018 2770 46.744 2770 60c0 13.256 5.271 25.982 14.645 35.355C2794.018 104.729 2806.744 110 2820 110c13.256 0 25.982-5.271 35.355-14.645C2864.729 85.982 2870 73.256 2870 60c0-13.256-5.271-25.982-14.645-35.355C2845.982 15.271 2833.256 10 2820 10z" fill="none" stroke="#ee1b25" stroke-width="2" stroke-dasharray="10.93089839102403,303.2240998603586" stroke-dashoffset="314.154998" stroke-miterlimit="10"/><path d="M2829.7 50.3V30.8h-19.4v19.5h-19.5v19.4h19.5v19.5h19.4V69.7h19.5V50.3z" fill="#ee1b25" fill-opacity=".229082"/></g><g><path d="M2940 10c-13.256 0-25.982 5.271-35.355 14.645C2895.271 34.018 2890 46.744 2890 60c0 13.256 5.271 25.982 14.645 35.355C2914.018 104.729 2926.744 110 2940 110c13.256 0 25.982-5.271 35.355-14.645C2984.729 85.982 2990 73.256 2990 60c0-13.256-5.271-25.982-14.645-35.355C2965.982 15.271 2953.256 10 2940 10z" fill="none" stroke="#ee1b25" stroke-width="2" stroke-dasharray="7.76983297586563,306.38516527551695" stroke-dashoffset="314.154998" stroke-miterlimit="10"/><path d="M2949.7 50.3V30.8h-19.4v19.5h-19.5v19.4h19.5v19.5h19.4V69.7h19.5V50.3z" fill="#ee1b25" fill-opacity=".160755"/></g><g><path d="M3060 10c-13.256 0-25.982 5.271-35.355 14.645C3015.271 34.018 3010 46.744 3010 60c0 13.256 5.271 25.982 14.645 35.355C3034.018 104.729 3046.744 110 3060 110c13.256 0 25.982-5.271 35.355-14.645C3104.729 85.982 3110 73.256 3110 60c0-13.256-5.271-25.982-14.645-35.355C3085.982 15.271 3073.256 10 3060 10z" fill="none" stroke="#ee1b25" stroke-width="2" stroke-dasharray="5.227967785472047,308.92703046591055" stroke-dashoffset="314.154998" stroke-miterlimit="10"/><path d="M3069.7 50.3V30.8h-19.4v19.5h-19.5v19.4h19.5v19.5h19.4V69.7h19.5V50.3z" fill="#ee1b25" fill-opacity=".107064"/></g><g><path d="M3180 10c-13.256 0-25.982 5.271-35.355 14.645C3135.271 34.018 3130 46.744 3130 60c0 13.256 5.271 25.982 14.645 35.355C3154.018 104.729 3166.744 110 3180 110c13.256 0 25.982-5.271 35.355-14.645C3224.729 85.982 3230 73.256 3230 60c0-13.256-5.271-25.982-14.645-35.355C3205.982 15.271 3193.256 10 3180 10z" fill="none" stroke="#ee1b25" stroke-width="2" stroke-dasharray="3.2462004499561377,310.9087978014265" stroke-dashoffset="314.154998" stroke-miterlimit="10"/><path d="M3189.7 50.3V30.8h-19.4v19.5h-19.5v19.4h19.5v19.5h19.4V69.7h19.5V50.3z" fill="#ee1b25" fill-opacity=".065932"/></g><g><path d="M3300 10c-13.256 0-25.982 5.271-35.355 14.645C3255.271 34.018 3250 46.744 3250 60c0 13.256 5.271 25.982 14.645 35.355C3274.018 104.729 3286.744 110 3300 110c13.256 0 25.982-5.271 35.355-14.645C3344.729 85.982 3350 73.256 3350 60c0-13.256-5.271-25.982-14.645-35.355C3325.982 15.271 3313.256 10 3300 10z" fill="none" stroke="#ee1b25" stroke-width="2" stroke-dasharray="1.7737415077938312,312.3812567435888" stroke-dashoffset="314.154998" stroke-miterlimit="10"/><path d="M3309.7 50.3V30.8h-19.4v19.5h-19.5v19.4h19.5v19.5h19.4V69.7h19.5V50.3z" fill="#ee1b25" fill-opacity=".035784"/></g><g><path d="M3420 10c-13.256 0-25.982 5.271-35.355 14.645C3375.271 34.018 3370 46.744 3370 60c0 13.256 5.271 25.982 14.645 35.355C3394.018 104.729 3406.744 110 3420 110c13.256 0 25.982-5.271 35.355-14.645C3464.729 85.982 3470 73.256 3470 60c0-13.256-5.271-25.982-14.645-35.355C3445.982 15.271 3433.256 10 3420 10z" fill="none" stroke="#ee1b25" stroke-width="2" stroke-dasharray="0.7666327611398397,313.3883654902428" stroke-dashoffset="314.154998" stroke-miterlimit="10"/><path d="M3429.7 50.3V30.8h-19.4v19.5h-19.5v19.4h19.5v19.5h19.4V69.7h19.5V50.3z" fill="#ee1b25" fill-opacity=".015381"/></g><g><path d="M3540 10c-13.256 0-25.982 5.271-35.355 14.645C3495.271 34.018 3490 46.744 3490 60c0 13.256 5.271 25.982 14.645 35.355C3514.018 104.729 3526.744 110 3540 110c13.256 0 25.982-5.271 35.355-14.645C3584.729 85.982 3590 73.256 3590 60c0-13.256-5.271-25.982-14.645-35.355C3565.982 15.271 3553.256 10 3540 10z" fill="none" stroke="#ee1b25" stroke-width="2" stroke-dasharray="0.18657613330230466,313.9684221180803" stroke-dashoffset="314.154998" stroke-miterlimit="10"/><path d="M3549.7 50.3V30.8h-19.4v19.5h-19.5v19.4h19.5v19.5h19.4V69.7h19.5V50.3z" fill="#ee1b25" fill-opacity=".003726"/></g><g><path d="M3660 10c-13.256 0-25.982 5.271-35.355 14.645C3615.271 34.018 3610 46.744 3610 60c0 13.256 5.271 25.982 14.645 35.355C3634.018 104.729 3646.744 110 3660 110c13.256 0 25.982-5.271 35.355-14.645C3704.729 85.982 3710 73.256 3710 60c0-13.256-5.271-25.982-14.645-35.355C3685.982 15.271 3673.256 10 3660 10z" fill="none" stroke="#ee1b25" stroke-width="2" stroke-dasharray="0,314.1549982513826" stroke-dashoffset="314.154998" stroke-miterlimit="10"/></g><g><path d="M3780 10c-13.256 0-25.982 5.271-35.355 14.645C3735.271 34.018 3730 46.744 3730 60c0 13.256 5.271 25.982 14.645 35.355C3754.018 104.729 3766.744 110 3780 110c13.256 0 25.982-5.271 35.355-14.645C3824.729 85.982 3830 73.256 3830 60c0-13.256-5.271-25.982-14.645-35.355C3805.982 15.271 3793.256 10 3780 10z" fill="none" stroke="#ee1b25" stroke-width="2" stroke-dasharray="0,314.1549982513826" stroke-dashoffset="314.154998" stroke-miterlimit="10"/></g><g><path d="M3900 10c-13.256 0-25.982 5.271-35.355 14.645C3855.271 34.018 3850 46.744 3850 60c0 13.256 5.271 25.982 14.645 35.355C3874.018 104.729 3886.744 110 3900 110c13.256 0 25.982-5.271 35.355-14.645C3944.729 85.982 3950 73.256 3950 60c0-13.256-5.271-25.982-14.645-35.355C3925.982 15.271 3913.256 10 3900 10z" fill="none" stroke="#ee1b25" stroke-width="2" stroke-dasharray="0,314.1549982513826" stroke-dashoffset="314.154998" stroke-miterlimit="10"/></g><g><path d="M4020 10c-13.256 0-25.982 5.271-35.355 14.645C3975.271 34.018 3970 46.744 3970 60c0 13.256 5.271 25.982 14.645 35.355C3994.018 104.729 4006.744 110 4020 110c13.256 0 25.982-5.271 35.355-14.645C4064.729 85.982 4070 73.256 4070 60c0-13.256-5.271-25.982-14.645-35.355C4045.982 15.271 4033.256 10 4020 10z" fill="none" stroke="#ee1b25" stroke-width="2" stroke-dasharray="0,314.1549982513826" stroke-dashoffset="314.154998" stroke-miterlimit="10"/></g><g><path d="M4140 10c-13.256 0-25.982 5.271-35.355 14.645C4095.271 34.018 4090 46.744 4090 60c0 13.256 5.271 25.982 14.645 35.355C4114.018 104.729 4126.744 110 4140 110c13.256 0 25.982-5.271 35.355-14.645C4184.729 85.982 4190 73.256 4190 60c0-13.256-5.271-25.982-14.645-35.355C4165.982 15.271 4153.256 10 4140 10z" fill="none" stroke="#ee1b25" stroke-width="2" stroke-dasharray="0,314.1549982513826" stroke-dashoffset="314.154998" stroke-miterlimit="10"/></g><g><path d="M4260 10c-13.256 0-25.982 5.271-35.355 14.645C4215.271 34.018 4210 46.744 4210 60c0 13.256 5.271 25.982 14.645 35.355C4234.018 104.729 4246.744 110 4260 110c13.256 0 25.982-5.271 35.355-14.645C4304.729 85.982 4310 73.256 4310 60c0-13.256-5.271-25.982-14.645-35.355C4285.982 15.271 4273.256 10 4260 10z" fill="none" stroke="#ee1b25" stroke-width="2" stroke-dasharray="0,314.1549982513826" stroke-dashoffset="314.154998" stroke-miterlimit="10"/></g><g><path d="M4380 10c-13.256 0-25.982 5.271-35.355 14.645C4335.271 34.018 4330 46.744 4330 60c0 13.256 5.271 25.982 14.645 35.355C4354.018 104.729 4366.744 110 4380 110c13.256 0 25.982-5.271 35.355-14.645C4424.729 85.982 4430 73.256 4430 60c0-13.256-5.271-25.982-14.645-35.355C4405.982 15.271 4393.256 10 4380 10z" fill="none" stroke="#ee1b25" stroke-width="2" stroke-dasharray="0,314.1549982513826" stroke-dashoffset="314.154998" stroke-miterlimit="10"/></g></svg>